<svg width="746" height="103" fill="none" xmlns="http://www.w3.org/2000/svg"><g clip-path="url(#clip0_1_7373)"><mask id="a" style="mask-type:alpha" maskUnits="userSpaceOnUse" x="0" y="0" width="147" height="103"><path fill="#ADACAC" class="svg-elem-1" d="M0 0h147v103H0z"/></mask><g mask="url(#a)"><path d="M47.09 102.709c7.975 0 15.084-1.527 21.328-4.58 6.243-3.1 11.256-7.36 15.039-12.783 3.828-5.424 6.061-11.621 6.7-18.594l.068-.752H70.127l-.137.684c-.866 3.919-2.347 7.269-4.443 10.048a20.77 20.77 0 01-7.861 6.29c-3.1 1.458-6.631 2.187-10.596 2.187-5.241 0-9.821-1.344-13.74-4.033-3.874-2.735-6.882-6.608-9.024-11.621-2.096-5.059-3.144-11.052-3.144-17.979v-.068c0-6.882 1.048-12.806 3.144-17.774 2.142-5.013 5.15-8.864 9.024-11.552 3.873-2.69 8.453-4.034 13.74-4.034 4.101 0 7.702.752 10.8 2.256 3.145 1.459 5.72 3.532 7.725 6.221s3.395 5.856 4.17 9.502l.274 1.162h20.097l-.068-.615c-.638-7.018-2.848-13.216-6.631-18.594-3.782-5.423-8.795-9.684-15.039-12.783C62.174 2.197 55.065.648 47.09.648c-9.616 0-17.933 2.051-24.951 6.153-7.019 4.056-12.442 9.89-16.27 17.5C2.041 31.866.127 40.958.127 51.576v.069c0 10.572 1.891 19.687 5.674 27.343 3.828 7.611 9.251 13.467 16.27 17.569 7.063 4.101 15.403 6.152 25.019 6.152z" fill="#A5A1FF" class="svg-elem-2"/><path d="M147.51 102.709c9.798 0 18.229-2.074 25.293-6.22 7.109-4.148 12.601-10.027 16.474-17.637 3.874-7.657 5.811-16.703 5.811-27.14v-.136c0-10.482-1.937-19.505-5.811-27.07-3.873-7.61-9.365-13.49-16.474-17.637-7.11-4.147-15.541-6.22-25.293-6.22-9.707 0-18.138 2.073-25.293 6.22-7.11 4.102-12.601 9.958-16.475 17.569-3.874 7.61-5.81 16.656-5.81 27.138v.137c0 10.436 1.914 19.482 5.742 27.139 3.874 7.61 9.365 13.49 16.474 17.636 7.155 4.147 15.609 6.221 25.362 6.221zm0-17.5c-5.423 0-10.117-1.367-14.082-4.102-3.965-2.734-7.041-6.608-9.229-11.62-2.142-5.014-3.213-10.938-3.213-17.774v-.137c0-6.927 1.071-12.874 3.213-17.842 2.188-5.013 5.264-8.864 9.229-11.552 4.01-2.69 8.704-4.034 14.082-4.034 5.377 0 10.049 1.368 14.013 4.102 4.011 2.689 7.087 6.54 9.229 11.553 2.187 4.967 3.281 10.892 3.281 17.773v.137c0 6.79-1.071 12.692-3.213 17.705-2.142 5.013-5.195 8.91-9.16 11.69-3.965 2.734-8.681 4.101-14.15 4.101z" fill="#A5A1FF" class="svg-elem-3"/><path d="M208.418 101h20.576V36.4h8.682l-17.295-13.056L274.111 101h17.91V2.357h-20.576v64.121h-8.613l17.295 13.057-53.662-77.178h-18.047V101z" fill="#A5A1FF" class="svg-elem-4"/><path d="M332.08 101h20.645V19.379h28.574V2.357h-77.725V19.38h28.506V101z" fill="#A5A1FF" class="svg-elem-5"/><path d="M392.715 101h65.351V83.978h-44.707V59.164h42.178V43.031h-42.178V19.38h44.707V2.357h-65.351V101z" fill="#A5A1FF" class="svg-elem-6"/><path d="M472.969 101h20.576V36.4h8.682l-17.295-13.056L538.662 101h17.91V2.357h-20.576v64.121h-8.613l17.295 13.057-53.662-77.178h-18.047V101z" fill="#A5A1FF" class="svg-elem-7"/><path d="M596.631 101h20.644V19.379h28.575V2.357h-77.725V19.38h28.506V101z" fill="#A5A1FF" class="svg-elem-8"/></g><mask id="b" style="mask-type:alpha" maskUnits="userSpaceOnUse" x="248" y="0" width="498" height="103"><path fill="#ADACAC" class="svg-elem-9" d="M248 0h498v103H248z"/></mask><g mask="url(#b)"><path d="M146.963 103.061c7.975 0 15.085-1.527 21.328-4.58 6.244-3.1 11.257-7.36 15.039-12.784 3.828-5.423 6.061-11.62 6.699-18.594l.069-.751H170l-.137.683c-.866 3.92-2.347 7.269-4.443 10.049-2.096 2.734-4.717 4.83-7.861 6.289-3.099 1.458-6.631 2.188-10.596 2.188-5.241 0-9.821-1.345-13.74-4.034-3.874-2.734-6.882-6.608-9.024-11.62-2.096-5.06-3.144-11.052-3.144-17.98v-.068c0-6.881 1.048-12.806 3.144-17.773 2.142-5.013 5.15-8.864 9.024-11.553 3.873-2.689 8.453-4.033 13.74-4.033 4.101 0 7.702.752 10.801 2.256 3.144 1.458 5.719 3.532 7.724 6.22 2.005 2.69 3.395 5.857 4.17 9.502l.274 1.163h20.097l-.068-.616c-.638-7.018-2.848-13.216-6.631-18.593-3.782-5.423-8.795-9.685-15.039-12.784C162.048 2.55 154.938 1 146.963 1c-9.616 0-17.933 2.05-24.951 6.152-7.019 4.056-12.442 9.89-16.27 17.5C101.914 32.217 100 41.31 100 51.928v.068c0 10.573 1.891 19.688 5.674 27.344 3.828 7.61 9.251 13.467 16.269 17.568 7.064 4.102 15.404 6.153 25.02 6.153z" fill="#A5A1FF" class="svg-elem-10"/><path d="M247.383 103.061c9.798 0 18.229-2.074 25.293-6.221 7.109-4.147 12.601-10.026 16.474-17.637 3.874-7.656 5.811-16.702 5.811-27.139v-.136c0-10.482-1.937-19.505-5.811-27.07-3.873-7.611-9.365-13.49-16.474-17.637C265.566 3.074 257.135 1 247.383 1c-9.707 0-18.138 2.074-25.293 6.22-7.11 4.102-12.601 9.958-16.475 17.57-3.873 7.61-5.81 16.656-5.81 27.138v.137c0 10.436 1.914 19.482 5.742 27.138 3.874 7.61 9.365 13.49 16.474 17.637 7.155 4.147 15.609 6.221 25.362 6.221zm0-17.5c-5.423 0-10.117-1.368-14.082-4.102s-7.041-6.608-9.229-11.621c-2.142-5.013-3.213-10.938-3.213-17.773v-.137c0-6.927 1.071-12.875 3.213-17.842 2.188-5.013 5.264-8.864 9.229-11.553 4.01-2.689 8.704-4.033 14.082-4.033 5.377 0 10.049 1.367 14.013 4.102 4.011 2.688 7.087 6.54 9.229 11.552 2.187 4.968 3.281 10.892 3.281 17.774v.137c0 6.79-1.071 12.692-3.213 17.704-2.142 5.014-5.195 8.91-9.16 11.69-3.965 2.734-8.681 4.102-14.15 4.102z" fill="#A5A1FF" class="svg-elem-11"/><path d="M308.291 101.352h20.576v-64.6h8.682l-17.295-13.057 53.73 77.657h17.911V2.709h-20.577V66.83h-8.613L380 79.887 326.338 2.709h-18.047v98.643z" fill="#A5A1FF" class="svg-elem-12"/><path d="M431.953 101.352h20.645V19.731h28.574V2.709h-77.725V19.73h28.506v81.622z" fill="#A5A1FF" class="svg-elem-13"/><path d="M492.588 101.352h65.351V84.33h-44.707V59.516h42.178V43.383h-42.178V19.73h44.707V2.71h-65.351v98.643z" fill="#A5A1FF" class="svg-elem-14"/><path d="M572.842 101.352h20.576v-64.6h8.682l-17.295-13.057 53.73 77.657h17.91V2.709h-20.576V66.83h-8.613l17.295 13.057-53.662-77.178h-18.047v98.643z" fill="#A5A1FF" class="svg-elem-15"/><path d="M696.504 101.352h20.644V19.731h28.575V2.709h-77.725V19.73h28.506v81.622z" fill="#A5A1FF" class="svg-elem-16"/></g><mask id="c" style="mask-type:alpha" maskUnits="userSpaceOnUse" x="147" y="0" width="101" height="103"><path fill="#D9D9D9" class="svg-elem-17" d="M147 0h101v103H147z"/></mask><g mask="url(#c)"><path d="M-9943.93 102.709c805.51 0 1523.55-1.527 2154.14-4.58 630.6-3.1 1136.91-7.36 1518.95-12.783 386.64-5.424 612.18-11.621 676.62-18.594l6.91-.752h-2029.87l-13.81.684c-87.45 3.919-237.04 7.269-448.78 10.048-211.73 2.735-476.39 4.831-793.99 6.29-312.99 1.458-669.72 2.187-1070.17 2.187-529.37 0-991.87-1.344-1387.77-4.033-391.2-2.735-695-6.608-911.4-11.621-211.7-5.059-317.6-11.052-317.6-17.979v-.068c0-6.882 105.9-12.806 317.6-17.774 216.4-5.013 520.2-8.864 911.4-11.552 391.3-2.69 853.8-4.034 1387.77-4.034 414.26 0 777.89.752 1090.88 2.256 317.6 1.459 577.66 3.532 780.19 6.221 202.52 2.689 342.91 5.856 421.16 9.502l27.62 1.162h2029.86l-6.9-.615c-64.44-7.018-287.68-13.216-669.72-18.594-382.04-5.423-888.35-9.684-1518.95-12.783-630.59-3.1-1348.63-4.649-2154.14-4.649-971.17 0-1811.27 2.051-2520.07 6.153-708.8 4.056-1256.6 9.89-1643.2 17.5-386.7 7.565-580 16.657-580 27.275v.069c0 10.572 191 19.687 573.1 27.343 386.6 7.611 934.4 13.467 1643.2 17.569 713.4 4.101 1555.8 6.152 2526.97 6.152z" fill="#A5A1FF" class="svg-elem-18"/><path d="M198.486 102.709c989.614 0 1841.144-2.074 2554.594-6.22 718.04-4.148 1272.69-10.027 1663.93-17.637 391.25-7.657 586.87-16.703 586.87-27.14v-.136c0-10.482-195.62-19.505-586.87-27.07-391.24-7.61-945.89-13.49-1663.93-17.637C2035.03 2.722 1183.5.65 198.486.65-781.924.65-1633.45 2.723-2356.1 6.87c-718.05 4.102-1272.7 9.958-1663.94 17.569-391.24 7.61-586.86 16.656-586.86 27.138v.137c0 10.436 193.32 19.482 579.96 27.139 391.24 7.61 945.89 13.49 1663.93 17.636 722.65 4.147 1576.484 6.221 2561.496 6.221zm0-17.5c-547.741 0-1021.836-1.367-1422.286-4.102-400.45-2.734-711.14-6.608-932.08-11.62-216.33-5.014-324.5-10.938-324.5-17.774v-.137c0-6.927 108.17-12.874 324.5-17.842 220.94-5.013 531.63-8.864 932.08-11.552 405.053-2.69 879.149-4.034 1422.286-4.034 543.138 0 1014.934 1.368 1415.384 4.102 405.05 2.689 715.74 6.54 932.08 11.553 220.93 4.967 331.4 10.892 331.4 17.773v.137c0 6.79-108.16 12.692-324.5 17.705-216.33 5.013-524.73 8.91-925.17 11.69-400.45 2.734-876.85 4.101-1429.194 4.101z" fill="#A5A1FF" class="svg-elem-19"/><path d="M6350.21 101h2078.2V36.4h876.84L7558.47 23.344 12985.2 101h1809V2.357H12716v64.121h-870l1746.8 13.057L8172.95 2.357H6350.21V101z" fill="#A5A1FF" class="svg-elem-20"/><path d="M18840.1 101h2085.1V19.379h2886V2.357H15961V19.38h2879.1V101z" fill="#A5A1FF" class="svg-elem-21"/><path d="M24964.2 101h6600.5V83.978h-4515.4V59.164h4259.9V43.031h-4259.9V19.38h4515.4V2.357h-6600.5V101z" fill="#A5A1FF" class="svg-elem-22"/><path d="M33069.8 101H35148V36.4h876.9l-1746.8-13.056L39704.9 101h1808.9V2.357h-2078.2v64.121h-869.9l1746.8 13.057-5419.9-77.178h-1822.8V101z" fill="#A5A1FF" class="svg-elem-23"/><path d="M45559.7 101h2085.1V19.379h2886V2.357h-7850.2V19.38h2879.1V101z" fill="#A5A1FF" class="svg-elem-24"/></g></g><defs><clipPath id="clip0_1_7373"><path fill="#fff" class="svg-elem-25" d="M0 0h746v103H0z"/></clipPath></defs></svg>