<svg width="180" height="40" viewBox="0 0 180 40" fill="none" xmlns="http://www.w3.org/2000/svg">
<g clip-path="url(#clip0_957_2169)">
<rect width="180" height="40" rx="20" fill="#1C1C1C"/>
<rect width="180" height="40" fill="#DE4646"/>
<path d="M26.894 25.1587C29.5728 25.1587 31.2422 23.3369 31.2422 20.4233V20.4106C31.2422 17.5034 29.5664 15.6816 26.894 15.6816C24.228 15.6816 22.5459 17.5034 22.5459 20.4106V20.4233C22.5459 23.3369 24.2217 25.1587 26.894 25.1587ZM26.894 23.7368C25.2563 23.7368 24.2153 22.4609 24.2153 20.4233V20.4106C24.2153 18.373 25.2627 17.1035 26.894 17.1035C28.5317 17.1035 29.5728 18.3794 29.5728 20.4106V20.4233C29.5728 22.4419 28.5508 23.7368 26.894 23.7368ZM32.4927 25H41.3984V18.2715H39.8179V23.7622H37.7358V18.2715H36.1553V23.7622H34.0732V18.2715H32.4927V25ZM42.814 25H44.3628L47.2637 20.4805H47.3271V25H48.8887V18.2715H47.3398L44.439 22.7593H44.3755V18.2715H42.814V25ZM53.3828 25.1333C55.395 25.1333 56.6392 23.8447 56.6392 21.7437V21.731C56.6392 19.7759 55.4648 18.5317 53.6558 18.5317C52.5703 18.5317 51.7769 18.9824 51.3516 19.7822H51.3198L51.3325 19.6934C51.5801 17.9351 52.1641 17.167 53.8779 17.1035L54.5317 17.0845C55.3062 17.0591 55.9663 16.9258 56.2012 16.7544V15.4912C55.8203 15.6689 55.1602 15.7769 54.4365 15.7959L53.751 15.8213C51.2437 15.9102 50.0757 17.3892 50.0757 21.1279V21.1406C50.0757 23.7686 51.25 25.1333 53.3828 25.1333ZM53.3574 23.8574C52.3037 23.8574 51.688 23.1021 51.688 21.769V21.7563C51.688 20.4932 52.3037 19.7759 53.3574 19.7759C54.4111 19.7759 55.0269 20.4932 55.0269 21.7563V21.769C55.0269 23.1021 54.4111 23.8574 53.3574 23.8574ZM59.5972 22.0737L61.9077 25H63.8311L60.9873 21.4136L63.6978 18.2715H61.876L59.5972 20.9883H59.3623V18.2715H57.7817V25H59.3623V22.0737H59.5972ZM64.688 25H66.2368L69.1377 20.4805H69.2012V25H70.7627V18.2715H69.2139L66.313 22.7593H66.2495V18.2715H64.688V25ZM77.104 27.2217H78.5259C77.5928 26.1235 76.8755 23.6733 76.8755 21.5278C76.8755 19.376 77.5928 16.9321 78.5259 15.8403H77.104C75.8218 17.4082 75.2505 19.249 75.2505 21.5342C75.2505 23.8003 75.8154 25.6475 77.104 27.2217ZM83.8008 25H85.3623V23.2417H86.6064V21.896H85.3623V15.8403H83.0327L79.2305 21.8452V23.2417H83.8008V25ZM80.7031 21.9341V21.8896L83.7881 17.0781H83.8262V21.9341H80.7031ZM88.6313 27.2217C89.9136 25.6475 90.4849 23.8003 90.4849 21.5342C90.4849 19.249 89.9136 17.4082 88.6313 15.8403H87.2095C88.1426 16.9258 88.8599 19.3823 88.8599 21.5278C88.8599 23.667 88.1426 26.1235 87.2095 27.2217H88.6313Z" fill="white"/>
<path d="M163 22.5L158 17.5L153 22.5" stroke="white" stroke-width="2"/>
</g>
<defs>
<clipPath id="clip0_957_2169">
<rect width="180" height="40" rx="20" fill="white"/>
</clipPath>
</defs>
</svg>
