<svg width="50" height="67" viewBox="0 0 50 67" fill="none" xmlns="http://www.w3.org/2000/svg">
<path d="M8.85003 13.886C9.668 9.68801 12.2853 8.79852 16.0193 9.68607C21.5521 11.1016 25.0874 15.3126 23.9627 19.3662C23.9428 19.4384 23.9244 19.5106 23.91 19.5847L15.9441 60.0763C15.0166 67.23 -1.46229 71.7747 0.105024 58.5718L8.85003 13.886Z" fill="white"/>
<path d="M34.5119 4.51173C35.3299 0.313746 37.9472 -0.575744 41.6812 0.311797C47.214 1.72734 50.7493 5.93838 49.6246 9.99197C49.6047 10.0642 49.5863 10.1364 49.5718 10.2104L41.606 50.702C40.6784 57.8558 24.1996 62.4004 25.7669 49.1975L34.5119 4.51173Z" fill="white"/>
</svg>
