<svg width="22" height="30" viewBox="0 0 22 30" fill="none" xmlns="http://www.w3.org/2000/svg">
<path d="M3.90713 6.21745C4.26826 4.33775 5.42375 3.93947 7.07225 4.33688C9.51488 4.9707 11.0757 6.85625 10.5791 8.67129C10.5703 8.70362 10.5622 8.73594 10.5558 8.76911L7.03904 26.8997C6.62955 30.1029 -0.645576 32.1378 0.0463664 26.2261L3.90713 6.21745Z" fill="#4CC67F"/>
<path d="M15.2357 2.02018C15.5969 0.140484 16.7524 -0.257797 18.4009 0.139611C20.8435 0.773437 22.4043 2.65898 21.9077 4.47403C21.899 4.50635 21.8908 4.53868 21.8844 4.57184L18.3677 22.7025C17.9582 25.9056 10.683 27.9405 11.375 22.0288L15.2357 2.02018Z" fill="#4CC67F"/>
</svg>
