<svg width="522" height="97" viewBox="0 0 522 97" fill="none" xmlns="http://www.w3.org/2000/svg">
<g filter="url(#filter0_bd_1_7688)">
<rect width="522" height="70" rx="16" fill="#101010" fill-opacity="0.8" shape-rendering="crispEdges"/>
<g filter="url(#filter1_b_1_7688)">
<g clip-path="url(#clip0_1_7688)">
<rect x="20" y="20" width="8.82353" height="8.82353" rx="1.76471" fill="#4CC67F"/>
<rect x="30.5884" y="20" width="8.82353" height="8.82353" rx="1.76471" fill="#4CC67F"/>
<rect x="41.1765" y="20" width="8.82353" height="8.82353" rx="1.76471" fill="#4CC67F"/>
<rect x="20" y="30.5884" width="8.82353" height="8.82353" rx="1.76471" fill="#4CC67F"/>
<rect x="30.5884" y="30.5884" width="8.82353" height="8.82353" rx="1.76471" fill="#DCE1EC"/>
<rect x="41.1765" y="30.5884" width="8.82353" height="8.82353" rx="1.76471" fill="#4CC67F"/>
<rect x="20" y="41.1763" width="8.82353" height="8.82353" rx="1.76471" fill="#4CC67F"/>
<rect x="30.5884" y="41.1763" width="8.82353" height="8.82353" rx="1.76471" fill="#4CC67F"/>
<rect x="41.1765" y="41.1763" width="8.82353" height="8.82353" rx="1.76471" fill="#4CC67F"/>
<rect x="60" y="10" width="1" height="50" fill="#444444"/>
<path d="M253.907 26.2174C254.268 24.3377 255.424 23.9395 257.072 24.3369C259.515 24.9707 261.076 26.8562 260.579 28.6713C260.57 28.7036 260.562 28.7359 260.556 28.7691L257.039 46.8997C256.63 50.1029 249.354 52.1378 250.046 46.2261L253.907 26.2174Z" fill="#4CC67F"/>
<path d="M265.236 22.0202C265.597 20.1405 266.752 19.7422 268.401 20.1396C270.843 20.7734 272.404 22.659 271.908 24.474C271.899 24.5064 271.891 24.5387 271.884 24.5718L268.368 42.7025C267.958 45.9056 260.683 47.9405 261.375 42.0288L265.236 22.0202Z" fill="#4CC67F"/>
<rect x="461" y="10" width="1" height="50" fill="#444444"/>
<path d="M477 28H497" stroke="#4CC67F" stroke-width="2" stroke-linecap="round"/>
<path d="M477 35H497" stroke="#4CC67F" stroke-width="2" stroke-linecap="round"/>
<path d="M477 42H497" stroke="#4CC67F" stroke-width="2" stroke-linecap="round"/>
</g>
<rect x="10.5" y="10.5" width="501" height="49" rx="9.5" stroke="#444444"/>
</g>
</g>
<defs>
<filter id="filter0_bd_1_7688" x="-30" y="-30" width="582" height="130" filterUnits="userSpaceOnUse" color-interpolation-filters="sRGB">
<feFlood flood-opacity="0" result="BackgroundImageFix"/>
<feGaussianBlur in="BackgroundImageFix" stdDeviation="15"/>
<feComposite in2="SourceAlpha" operator="in" result="effect1_backgroundBlur_1_7688"/>
<feColorMatrix in="SourceAlpha" type="matrix" values="0 0 0 0 0 0 0 0 0 0 0 0 0 0 0 0 0 0 127 0" result="hardAlpha"/>
<feMorphology radius="20" operator="erode" in="SourceAlpha" result="effect2_dropShadow_1_7688"/>
<feOffset dy="27"/>
<feGaussianBlur stdDeviation="10"/>
<feComposite in2="hardAlpha" operator="out"/>
<feColorMatrix type="matrix" values="0 0 0 0 0 0 0 0 0 0 0 0 0 0 0 0 0 0 0.25 0"/>
<feBlend mode="normal" in2="effect1_backgroundBlur_1_7688" result="effect2_dropShadow_1_7688"/>
<feBlend mode="normal" in="SourceGraphic" in2="effect2_dropShadow_1_7688" result="shape"/>
</filter>
<filter id="filter1_b_1_7688" x="-20" y="-20" width="562" height="110" filterUnits="userSpaceOnUse" color-interpolation-filters="sRGB">
<feFlood flood-opacity="0" result="BackgroundImageFix"/>
<feGaussianBlur in="BackgroundImageFix" stdDeviation="15"/>
<feComposite in2="SourceAlpha" operator="in" result="effect1_backgroundBlur_1_7688"/>
<feBlend mode="normal" in="SourceGraphic" in2="effect1_backgroundBlur_1_7688" result="shape"/>
</filter>
<clipPath id="clip0_1_7688">
<rect x="10" y="10" width="502" height="50" rx="10" fill="white"/>
</clipPath>
</defs>
</svg>
